<mxfile host="Electron" modified="2023-12-07T10:21:12.436Z" agent="Mozilla/5.0 (Windows NT 10.0; Win64; x64) AppleWebKit/537.36 (KHTML, like Gecko) draw.io/22.1.2 Chrome/114.0.5735.289 Electron/25.9.4 Safari/537.36" etag="Rcrmd3s4L5SC0uOqUB_o" version="22.1.2" type="device">
  <diagram id="C5RBs43oDa-KdzZeNtuy" name="Page-1">
    <mxGraphModel dx="1219" dy="3194" grid="1" gridSize="10" guides="1" tooltips="1" connect="1" arrows="1" fold="1" page="1" pageScale="1" pageWidth="1169" pageHeight="827" math="0" shadow="0">
      <root>
        <mxCell id="WIyWlLk6GJQsqaUBKTNV-0" />
        <mxCell id="WIyWlLk6GJQsqaUBKTNV-1" parent="WIyWlLk6GJQsqaUBKTNV-0" />
        <mxCell id="xJUP266T7b2zGPGbMUPT-0" value="主程序" style="strokeWidth=2;html=1;shape=mxgraph.flowchart.loop_limit;whiteSpace=wrap;" parent="WIyWlLk6GJQsqaUBKTNV-1" vertex="1">
          <mxGeometry x="110" y="-2370" width="100" height="60" as="geometry" />
        </mxCell>
        <mxCell id="xJUP266T7b2zGPGbMUPT-1" value="读取手柄输入" style="rounded=0;whiteSpace=wrap;html=1;" parent="WIyWlLk6GJQsqaUBKTNV-1" vertex="1">
          <mxGeometry x="75" y="-2280" width="170" height="30" as="geometry" />
        </mxCell>
        <mxCell id="xJUP266T7b2zGPGbMUPT-2" value="读取编码器、陀螺仪数值" style="rounded=0;whiteSpace=wrap;html=1;" parent="WIyWlLk6GJQsqaUBKTNV-1" vertex="1">
          <mxGeometry x="75" y="-2230" width="170" height="30" as="geometry" />
        </mxCell>
        <mxCell id="xJUP266T7b2zGPGbMUPT-3" value="" style="endArrow=classic;html=1;rounded=0;exitX=0.5;exitY=1;exitDx=0;exitDy=0;exitPerimeter=0;entryX=0.5;entryY=0;entryDx=0;entryDy=0;" parent="WIyWlLk6GJQsqaUBKTNV-1" source="xJUP266T7b2zGPGbMUPT-0" target="xJUP266T7b2zGPGbMUPT-1" edge="1">
          <mxGeometry width="50" height="50" relative="1" as="geometry">
            <mxPoint x="280" y="-2230" as="sourcePoint" />
            <mxPoint x="330" y="-2280" as="targetPoint" />
          </mxGeometry>
        </mxCell>
        <mxCell id="xJUP266T7b2zGPGbMUPT-4" value="" style="endArrow=classic;html=1;rounded=0;exitX=0.5;exitY=1;exitDx=0;exitDy=0;entryX=0.5;entryY=0;entryDx=0;entryDy=0;" parent="WIyWlLk6GJQsqaUBKTNV-1" source="xJUP266T7b2zGPGbMUPT-1" target="xJUP266T7b2zGPGbMUPT-2" edge="1">
          <mxGeometry width="50" height="50" relative="1" as="geometry">
            <mxPoint x="160" y="-2200" as="sourcePoint" />
            <mxPoint x="210" y="-2250" as="targetPoint" />
          </mxGeometry>
        </mxCell>
        <mxCell id="xJUP266T7b2zGPGbMUPT-5" value="" style="endArrow=classic;html=1;rounded=0;exitX=0.5;exitY=1;exitDx=0;exitDy=0;" parent="WIyWlLk6GJQsqaUBKTNV-1" source="xJUP266T7b2zGPGbMUPT-2" edge="1">
          <mxGeometry width="50" height="50" relative="1" as="geometry">
            <mxPoint x="330" y="-2140" as="sourcePoint" />
            <mxPoint x="160" y="-2180" as="targetPoint" />
          </mxGeometry>
        </mxCell>
        <mxCell id="xJUP266T7b2zGPGbMUPT-7" value="做出底盘反馈" style="rounded=0;whiteSpace=wrap;html=1;" parent="WIyWlLk6GJQsqaUBKTNV-1" vertex="1">
          <mxGeometry x="75" y="-2180" width="170" height="30" as="geometry" />
        </mxCell>
        <mxCell id="xJUP266T7b2zGPGbMUPT-8" value="" style="endArrow=classic;html=1;rounded=0;exitX=0.5;exitY=1;exitDx=0;exitDy=0;entryX=0.5;entryY=0;entryDx=0;entryDy=0;" parent="WIyWlLk6GJQsqaUBKTNV-1" source="xJUP266T7b2zGPGbMUPT-7" target="xJUP266T7b2zGPGbMUPT-10" edge="1">
          <mxGeometry width="50" height="50" relative="1" as="geometry">
            <mxPoint x="330" y="-2140" as="sourcePoint" />
            <mxPoint x="320" y="-2130" as="targetPoint" />
          </mxGeometry>
        </mxCell>
        <mxCell id="xJUP266T7b2zGPGbMUPT-10" value="摄像头视觉识别" style="rounded=0;whiteSpace=wrap;html=1;" parent="WIyWlLk6GJQsqaUBKTNV-1" vertex="1">
          <mxGeometry x="75" y="-2130" width="170" height="30" as="geometry" />
        </mxCell>
        <mxCell id="xJUP266T7b2zGPGbMUPT-11" value="" style="endArrow=classic;html=1;rounded=0;exitX=0.5;exitY=1;exitDx=0;exitDy=0;entryX=0.5;entryY=0;entryDx=0;entryDy=0;" parent="WIyWlLk6GJQsqaUBKTNV-1" source="xJUP266T7b2zGPGbMUPT-10" edge="1" target="xJUP266T7b2zGPGbMUPT-12">
          <mxGeometry width="50" height="50" relative="1" as="geometry">
            <mxPoint x="330" y="-2140" as="sourcePoint" />
            <mxPoint x="160" y="-2080" as="targetPoint" />
          </mxGeometry>
        </mxCell>
        <mxCell id="6UodDukY4bxk-1EVCBgu-11" value="" style="edgeStyle=orthogonalEdgeStyle;rounded=0;orthogonalLoop=1;jettySize=auto;html=1;" edge="1" parent="WIyWlLk6GJQsqaUBKTNV-1" source="xJUP266T7b2zGPGbMUPT-12" target="6UodDukY4bxk-1EVCBgu-5">
          <mxGeometry relative="1" as="geometry" />
        </mxCell>
        <mxCell id="xJUP266T7b2zGPGbMUPT-12" value="读取手柄输入" style="rounded=0;whiteSpace=wrap;html=1;" parent="WIyWlLk6GJQsqaUBKTNV-1" vertex="1">
          <mxGeometry x="75" y="-2060" width="170" height="30" as="geometry" />
        </mxCell>
        <mxCell id="xJUP266T7b2zGPGbMUPT-13" value="" style="endArrow=none;dashed=1;html=1;dashPattern=1 3;strokeWidth=2;rounded=0;" parent="WIyWlLk6GJQsqaUBKTNV-1" edge="1">
          <mxGeometry width="50" height="50" relative="1" as="geometry">
            <mxPoint x="50" y="-2090" as="sourcePoint" />
            <mxPoint x="50" y="-2300" as="targetPoint" />
          </mxGeometry>
        </mxCell>
        <mxCell id="xJUP266T7b2zGPGbMUPT-14" value="" style="endArrow=none;dashed=1;html=1;dashPattern=1 3;strokeWidth=2;rounded=0;" parent="WIyWlLk6GJQsqaUBKTNV-1" edge="1">
          <mxGeometry width="50" height="50" relative="1" as="geometry">
            <mxPoint x="50" y="-2300" as="sourcePoint" />
            <mxPoint x="280" y="-2300" as="targetPoint" />
          </mxGeometry>
        </mxCell>
        <mxCell id="xJUP266T7b2zGPGbMUPT-15" value="" style="endArrow=none;dashed=1;html=1;dashPattern=1 3;strokeWidth=2;rounded=0;" parent="WIyWlLk6GJQsqaUBKTNV-1" edge="1">
          <mxGeometry width="50" height="50" relative="1" as="geometry">
            <mxPoint x="280" y="-2300" as="sourcePoint" />
            <mxPoint x="280" y="-2090" as="targetPoint" />
          </mxGeometry>
        </mxCell>
        <mxCell id="xJUP266T7b2zGPGbMUPT-16" value="" style="endArrow=none;dashed=1;html=1;dashPattern=1 3;strokeWidth=2;rounded=0;" parent="WIyWlLk6GJQsqaUBKTNV-1" edge="1">
          <mxGeometry width="50" height="50" relative="1" as="geometry">
            <mxPoint x="50" y="-2090" as="sourcePoint" />
            <mxPoint x="280" y="-2090" as="targetPoint" />
          </mxGeometry>
        </mxCell>
        <mxCell id="xJUP266T7b2zGPGbMUPT-17" value="底盘" style="text;html=1;strokeColor=none;fillColor=none;align=center;verticalAlign=middle;whiteSpace=wrap;rounded=0;" parent="WIyWlLk6GJQsqaUBKTNV-1" vertex="1">
          <mxGeometry x="330" y="-2210" width="30" height="30" as="geometry" />
        </mxCell>
        <mxCell id="xJUP266T7b2zGPGbMUPT-18" value="" style="endArrow=none;html=1;rounded=0;entryX=0;entryY=0.5;entryDx=0;entryDy=0;" parent="WIyWlLk6GJQsqaUBKTNV-1" target="xJUP266T7b2zGPGbMUPT-17" edge="1">
          <mxGeometry width="50" height="50" relative="1" as="geometry">
            <mxPoint x="280" y="-2195" as="sourcePoint" />
            <mxPoint x="370" y="-2190" as="targetPoint" />
          </mxGeometry>
        </mxCell>
        <mxCell id="6UodDukY4bxk-1EVCBgu-0" value="" style="endArrow=classic;html=1;rounded=0;exitX=0.5;exitY=1;exitDx=0;exitDy=0;" edge="1" parent="WIyWlLk6GJQsqaUBKTNV-1" source="xJUP266T7b2zGPGbMUPT-12">
          <mxGeometry width="50" height="50" relative="1" as="geometry">
            <mxPoint x="350" y="-2060" as="sourcePoint" />
            <mxPoint x="160" y="-2030" as="targetPoint" />
          </mxGeometry>
        </mxCell>
        <mxCell id="6UodDukY4bxk-1EVCBgu-2" value="读取手臂传感器" style="rounded=0;whiteSpace=wrap;html=1;" vertex="1" parent="WIyWlLk6GJQsqaUBKTNV-1">
          <mxGeometry x="75" y="-2010" width="170" height="30" as="geometry" />
        </mxCell>
        <mxCell id="6UodDukY4bxk-1EVCBgu-3" value="" style="endArrow=classic;html=1;rounded=0;exitX=0.5;exitY=1;exitDx=0;exitDy=0;entryX=0.5;entryY=0;entryDx=0;entryDy=0;" edge="1" parent="WIyWlLk6GJQsqaUBKTNV-1" source="6UodDukY4bxk-1EVCBgu-2" target="6UodDukY4bxk-1EVCBgu-5">
          <mxGeometry width="50" height="50" relative="1" as="geometry">
            <mxPoint x="350" y="-1990" as="sourcePoint" />
            <mxPoint x="160" y="-1980" as="targetPoint" />
          </mxGeometry>
        </mxCell>
        <mxCell id="6UodDukY4bxk-1EVCBgu-5" value="抬升结构与舵机反馈" style="rounded=0;whiteSpace=wrap;html=1;" vertex="1" parent="WIyWlLk6GJQsqaUBKTNV-1">
          <mxGeometry x="75" y="-1960" width="170" height="30" as="geometry" />
        </mxCell>
        <mxCell id="6UodDukY4bxk-1EVCBgu-6" value="" style="endArrow=none;dashed=1;html=1;dashPattern=1 3;strokeWidth=2;rounded=0;" edge="1" parent="WIyWlLk6GJQsqaUBKTNV-1">
          <mxGeometry width="50" height="50" relative="1" as="geometry">
            <mxPoint x="50" y="-2065.34" as="sourcePoint" />
            <mxPoint x="50" y="-1925.34" as="targetPoint" />
          </mxGeometry>
        </mxCell>
        <mxCell id="6UodDukY4bxk-1EVCBgu-7" value="" style="endArrow=none;dashed=1;html=1;dashPattern=1 3;strokeWidth=2;rounded=0;" edge="1" parent="WIyWlLk6GJQsqaUBKTNV-1">
          <mxGeometry width="50" height="50" relative="1" as="geometry">
            <mxPoint x="280" y="-2065.34" as="sourcePoint" />
            <mxPoint x="280" y="-1925.34" as="targetPoint" />
          </mxGeometry>
        </mxCell>
        <mxCell id="6UodDukY4bxk-1EVCBgu-8" value="" style="endArrow=none;dashed=1;html=1;dashPattern=1 3;strokeWidth=2;rounded=0;" edge="1" parent="WIyWlLk6GJQsqaUBKTNV-1">
          <mxGeometry width="50" height="50" relative="1" as="geometry">
            <mxPoint x="50" y="-2065.34" as="sourcePoint" />
            <mxPoint x="280" y="-2065.34" as="targetPoint" />
          </mxGeometry>
        </mxCell>
        <mxCell id="6UodDukY4bxk-1EVCBgu-9" value="" style="endArrow=none;dashed=1;html=1;dashPattern=1 3;strokeWidth=2;rounded=0;" edge="1" parent="WIyWlLk6GJQsqaUBKTNV-1">
          <mxGeometry width="50" height="50" relative="1" as="geometry">
            <mxPoint x="50" y="-1925.34" as="sourcePoint" />
            <mxPoint x="280" y="-1925.34" as="targetPoint" />
          </mxGeometry>
        </mxCell>
        <mxCell id="6UodDukY4bxk-1EVCBgu-13" value="" style="endArrow=classic;html=1;rounded=0;entryX=0.5;entryY=0;entryDx=0;entryDy=0;" edge="1" parent="WIyWlLk6GJQsqaUBKTNV-1" target="6UodDukY4bxk-1EVCBgu-2">
          <mxGeometry width="50" height="50" relative="1" as="geometry">
            <mxPoint x="160" y="-2030" as="sourcePoint" />
            <mxPoint x="300" y="-2080" as="targetPoint" />
          </mxGeometry>
        </mxCell>
        <mxCell id="6UodDukY4bxk-1EVCBgu-15" value="机械手" style="text;html=1;strokeColor=none;fillColor=none;align=center;verticalAlign=middle;whiteSpace=wrap;rounded=0;" vertex="1" parent="WIyWlLk6GJQsqaUBKTNV-1">
          <mxGeometry x="330" y="-2010" width="50" height="30" as="geometry" />
        </mxCell>
        <mxCell id="6UodDukY4bxk-1EVCBgu-16" value="" style="endArrow=none;html=1;rounded=0;entryX=0;entryY=0.5;entryDx=0;entryDy=0;" edge="1" parent="WIyWlLk6GJQsqaUBKTNV-1" target="6UodDukY4bxk-1EVCBgu-15">
          <mxGeometry width="50" height="50" relative="1" as="geometry">
            <mxPoint x="280" y="-1995" as="sourcePoint" />
            <mxPoint x="360" y="-2040" as="targetPoint" />
          </mxGeometry>
        </mxCell>
        <mxCell id="6UodDukY4bxk-1EVCBgu-17" value="" style="endArrow=classic;html=1;rounded=0;" edge="1" parent="WIyWlLk6GJQsqaUBKTNV-1">
          <mxGeometry width="50" height="50" relative="1" as="geometry">
            <mxPoint x="160" y="-1920" as="sourcePoint" />
            <mxPoint x="160" y="-1880" as="targetPoint" />
          </mxGeometry>
        </mxCell>
        <mxCell id="6UodDukY4bxk-1EVCBgu-18" value="其他模块" style="text;html=1;strokeColor=none;fillColor=none;align=center;verticalAlign=middle;whiteSpace=wrap;rounded=0;" vertex="1" parent="WIyWlLk6GJQsqaUBKTNV-1">
          <mxGeometry x="170" y="-1860" width="60" height="30" as="geometry" />
        </mxCell>
        <mxCell id="6UodDukY4bxk-1EVCBgu-19" value="" style="endArrow=none;dashed=1;html=1;dashPattern=1 3;strokeWidth=2;rounded=0;" edge="1" parent="WIyWlLk6GJQsqaUBKTNV-1">
          <mxGeometry width="50" height="50" relative="1" as="geometry">
            <mxPoint x="160" y="-1830" as="sourcePoint" />
            <mxPoint x="160" y="-1870" as="targetPoint" />
          </mxGeometry>
        </mxCell>
        <mxCell id="6UodDukY4bxk-1EVCBgu-20" value="" style="endArrow=classic;html=1;rounded=0;entryX=1;entryY=0.5;entryDx=0;entryDy=0;entryPerimeter=0;" edge="1" parent="WIyWlLk6GJQsqaUBKTNV-1">
          <mxGeometry width="50" height="50" relative="1" as="geometry">
            <mxPoint x="160" y="-1810" as="sourcePoint" />
            <mxPoint x="210" y="-2320" as="targetPoint" />
            <Array as="points">
              <mxPoint x="440" y="-1810" />
              <mxPoint x="440" y="-2320" />
            </Array>
          </mxGeometry>
        </mxCell>
        <mxCell id="6UodDukY4bxk-1EVCBgu-21" value="主程序" style="strokeWidth=2;html=1;shape=mxgraph.flowchart.loop_limit;whiteSpace=wrap;" vertex="1" parent="WIyWlLk6GJQsqaUBKTNV-1">
          <mxGeometry x="585" y="-2110" width="100" height="60" as="geometry" />
        </mxCell>
        <mxCell id="6UodDukY4bxk-1EVCBgu-22" value="&lt;font style=&quot;&quot;&gt;&lt;font color=&quot;#ff8000&quot; style=&quot;font-size: 24px;&quot;&gt;单线程&lt;/font&gt;&lt;br&gt;&lt;/font&gt;" style="text;html=1;strokeColor=none;fillColor=none;align=center;verticalAlign=middle;whiteSpace=wrap;rounded=0;" vertex="1" parent="WIyWlLk6GJQsqaUBKTNV-1">
          <mxGeometry x="130" y="-1710" width="140" height="70" as="geometry" />
        </mxCell>
        <mxCell id="6UodDukY4bxk-1EVCBgu-23" value="&lt;font style=&quot;&quot;&gt;&lt;font color=&quot;#ff8000&quot;&gt;&lt;span style=&quot;font-size: 24px;&quot;&gt;多线程&lt;/span&gt;&lt;/font&gt;&lt;br&gt;&lt;/font&gt;" style="text;html=1;strokeColor=none;fillColor=none;align=center;verticalAlign=middle;whiteSpace=wrap;rounded=0;" vertex="1" parent="WIyWlLk6GJQsqaUBKTNV-1">
          <mxGeometry x="550" y="-1710" width="140" height="70" as="geometry" />
        </mxCell>
        <mxCell id="6UodDukY4bxk-1EVCBgu-24" value="读取手柄输入" style="rounded=0;whiteSpace=wrap;html=1;" vertex="1" parent="WIyWlLk6GJQsqaUBKTNV-1">
          <mxGeometry x="550" y="-2020" width="170" height="30" as="geometry" />
        </mxCell>
        <mxCell id="6UodDukY4bxk-1EVCBgu-25" value="进行逻辑处理&lt;br&gt;（快捷键、按下、松开)" style="rounded=0;whiteSpace=wrap;html=1;" vertex="1" parent="WIyWlLk6GJQsqaUBKTNV-1">
          <mxGeometry x="550" y="-1970" width="170" height="30" as="geometry" />
        </mxCell>
        <mxCell id="6UodDukY4bxk-1EVCBgu-29" value="" style="endArrow=classic;html=1;rounded=0;exitX=0.5;exitY=1;exitDx=0;exitDy=0;exitPerimeter=0;entryX=0.5;entryY=0;entryDx=0;entryDy=0;" edge="1" parent="WIyWlLk6GJQsqaUBKTNV-1" source="6UodDukY4bxk-1EVCBgu-21" target="6UodDukY4bxk-1EVCBgu-24">
          <mxGeometry width="50" height="50" relative="1" as="geometry">
            <mxPoint x="515" y="-2050" as="sourcePoint" />
            <mxPoint x="565" y="-2100" as="targetPoint" />
          </mxGeometry>
        </mxCell>
        <mxCell id="6UodDukY4bxk-1EVCBgu-30" value="" style="endArrow=classic;html=1;rounded=0;exitX=0.5;exitY=1;exitDx=0;exitDy=0;entryX=0.5;entryY=0;entryDx=0;entryDy=0;" edge="1" parent="WIyWlLk6GJQsqaUBKTNV-1" source="6UodDukY4bxk-1EVCBgu-24" target="6UodDukY4bxk-1EVCBgu-25">
          <mxGeometry width="50" height="50" relative="1" as="geometry">
            <mxPoint x="745" y="-1980" as="sourcePoint" />
            <mxPoint x="795" y="-2030" as="targetPoint" />
          </mxGeometry>
        </mxCell>
        <mxCell id="6UodDukY4bxk-1EVCBgu-31" value="" style="endArrow=classic;html=1;rounded=0;exitX=0.5;exitY=1;exitDx=0;exitDy=0;entryX=1;entryY=0.5;entryDx=0;entryDy=0;entryPerimeter=0;" edge="1" parent="WIyWlLk6GJQsqaUBKTNV-1" source="6UodDukY4bxk-1EVCBgu-25" target="6UodDukY4bxk-1EVCBgu-21">
          <mxGeometry width="50" height="50" relative="1" as="geometry">
            <mxPoint x="685" y="-1860" as="sourcePoint" />
            <mxPoint x="840" y="-2080" as="targetPoint" />
            <Array as="points">
              <mxPoint x="635" y="-1870" />
              <mxPoint x="840" y="-1870" />
              <mxPoint x="840" y="-2080" />
            </Array>
          </mxGeometry>
        </mxCell>
        <mxCell id="6UodDukY4bxk-1EVCBgu-32" value="&lt;font color=&quot;#3333ff&quot; size=&quot;1&quot;&gt;&lt;b style=&quot;font-size: 20px;&quot;&gt;80次/秒&lt;/b&gt;&lt;/font&gt;" style="text;html=1;strokeColor=none;fillColor=none;align=center;verticalAlign=middle;whiteSpace=wrap;rounded=0;" vertex="1" parent="WIyWlLk6GJQsqaUBKTNV-1">
          <mxGeometry x="720" y="-2010" width="110" height="70" as="geometry" />
        </mxCell>
        <mxCell id="6UodDukY4bxk-1EVCBgu-34" value="" style="endArrow=classic;html=1;rounded=0;exitX=0;exitY=0;exitDx=0;exitDy=0;entryX=0;entryY=0.5;entryDx=0;entryDy=0;" edge="1" parent="WIyWlLk6GJQsqaUBKTNV-1" source="6UodDukY4bxk-1EVCBgu-32" target="6UodDukY4bxk-1EVCBgu-44">
          <mxGeometry width="50" height="50" relative="1" as="geometry">
            <mxPoint x="790" y="-2110" as="sourcePoint" />
            <mxPoint x="920" y="-2210" as="targetPoint" />
          </mxGeometry>
        </mxCell>
        <mxCell id="6UodDukY4bxk-1EVCBgu-35" value="&lt;font style=&quot;font-size: 15px;&quot;&gt;发送指令&lt;/font&gt;" style="text;html=1;strokeColor=none;fillColor=none;align=center;verticalAlign=middle;whiteSpace=wrap;rounded=0;" vertex="1" parent="WIyWlLk6GJQsqaUBKTNV-1">
          <mxGeometry x="710" y="-2180" width="80" height="40" as="geometry" />
        </mxCell>
        <mxCell id="6UodDukY4bxk-1EVCBgu-43" value="底盘模块" style="strokeWidth=2;html=1;shape=mxgraph.flowchart.loop_limit;whiteSpace=wrap;" vertex="1" parent="WIyWlLk6GJQsqaUBKTNV-1">
          <mxGeometry x="905" y="-2420" width="100" height="40" as="geometry" />
        </mxCell>
        <mxCell id="6UodDukY4bxk-1EVCBgu-60" style="edgeStyle=orthogonalEdgeStyle;rounded=0;orthogonalLoop=1;jettySize=auto;html=1;exitX=0.5;exitY=1;exitDx=0;exitDy=0;entryX=0.5;entryY=0;entryDx=0;entryDy=0;" edge="1" parent="WIyWlLk6GJQsqaUBKTNV-1" source="6UodDukY4bxk-1EVCBgu-44" target="6UodDukY4bxk-1EVCBgu-58">
          <mxGeometry relative="1" as="geometry" />
        </mxCell>
        <mxCell id="6UodDukY4bxk-1EVCBgu-44" value="读取传感器输入" style="rounded=0;whiteSpace=wrap;html=1;" vertex="1" parent="WIyWlLk6GJQsqaUBKTNV-1">
          <mxGeometry x="870" y="-2350" width="170" height="30" as="geometry" />
        </mxCell>
        <mxCell id="6UodDukY4bxk-1EVCBgu-45" value="进行地盘反馈" style="rounded=0;whiteSpace=wrap;html=1;" vertex="1" parent="WIyWlLk6GJQsqaUBKTNV-1">
          <mxGeometry x="870" y="-2230" width="170" height="30" as="geometry" />
        </mxCell>
        <mxCell id="6UodDukY4bxk-1EVCBgu-46" value="" style="endArrow=classic;html=1;rounded=0;exitX=0.5;exitY=1;exitDx=0;exitDy=0;exitPerimeter=0;entryX=0.5;entryY=0;entryDx=0;entryDy=0;" edge="1" parent="WIyWlLk6GJQsqaUBKTNV-1" source="6UodDukY4bxk-1EVCBgu-43" target="6UodDukY4bxk-1EVCBgu-44">
          <mxGeometry width="50" height="50" relative="1" as="geometry">
            <mxPoint x="835" y="-2360" as="sourcePoint" />
            <mxPoint x="885" y="-2410" as="targetPoint" />
          </mxGeometry>
        </mxCell>
        <mxCell id="6UodDukY4bxk-1EVCBgu-48" value="" style="endArrow=classic;html=1;rounded=0;exitX=0.5;exitY=1;exitDx=0;exitDy=0;entryX=1;entryY=0.5;entryDx=0;entryDy=0;entryPerimeter=0;" edge="1" parent="WIyWlLk6GJQsqaUBKTNV-1" source="6UodDukY4bxk-1EVCBgu-45" target="6UodDukY4bxk-1EVCBgu-43">
          <mxGeometry width="50" height="50" relative="1" as="geometry">
            <mxPoint x="1005" y="-2170" as="sourcePoint" />
            <mxPoint x="1160" y="-2390" as="targetPoint" />
            <Array as="points">
              <mxPoint x="955" y="-2180" />
              <mxPoint x="1160" y="-2180" />
              <mxPoint x="1160" y="-2400" />
            </Array>
          </mxGeometry>
        </mxCell>
        <mxCell id="6UodDukY4bxk-1EVCBgu-49" value="&lt;font color=&quot;#3333ff&quot; size=&quot;1&quot;&gt;&lt;b style=&quot;font-size: 20px;&quot;&gt;120次/秒&lt;/b&gt;&lt;/font&gt;" style="text;html=1;strokeColor=none;fillColor=none;align=center;verticalAlign=middle;whiteSpace=wrap;rounded=0;" vertex="1" parent="WIyWlLk6GJQsqaUBKTNV-1">
          <mxGeometry x="1040" y="-2320" width="110" height="70" as="geometry" />
        </mxCell>
        <mxCell id="6UodDukY4bxk-1EVCBgu-50" value="&lt;font color=&quot;#3333ff&quot; size=&quot;1&quot;&gt;&lt;b style=&quot;font-size: 20px;&quot;&gt;25次/秒&lt;/b&gt;&lt;/font&gt;" style="text;html=1;strokeColor=none;fillColor=none;align=center;verticalAlign=middle;whiteSpace=wrap;rounded=0;" vertex="1" parent="WIyWlLk6GJQsqaUBKTNV-1">
          <mxGeometry x="300" y="-2120" width="110" height="70" as="geometry" />
        </mxCell>
        <mxCell id="6UodDukY4bxk-1EVCBgu-51" value="&lt;font color=&quot;#3333ff&quot; size=&quot;1&quot;&gt;&lt;b style=&quot;font-size: 15px;&quot;&gt;驾驶员输入平均延迟：40ms&lt;/b&gt;&lt;/font&gt;" style="text;html=1;strokeColor=none;fillColor=none;align=center;verticalAlign=middle;whiteSpace=wrap;rounded=0;" vertex="1" parent="WIyWlLk6GJQsqaUBKTNV-1">
          <mxGeometry x="220" y="-1710" width="250" height="70" as="geometry" />
        </mxCell>
        <mxCell id="6UodDukY4bxk-1EVCBgu-52" value="&lt;font color=&quot;#3333ff&quot; size=&quot;1&quot;&gt;&lt;b style=&quot;font-size: 15px;&quot;&gt;驾驶员输入平均延迟：15ms&lt;/b&gt;&lt;/font&gt;" style="text;html=1;strokeColor=none;fillColor=none;align=center;verticalAlign=middle;whiteSpace=wrap;rounded=0;" vertex="1" parent="WIyWlLk6GJQsqaUBKTNV-1">
          <mxGeometry x="660" y="-1710" width="250" height="70" as="geometry" />
        </mxCell>
        <mxCell id="6UodDukY4bxk-1EVCBgu-53" value="" style="endArrow=classic;html=1;rounded=0;exitX=0;exitY=0.75;exitDx=0;exitDy=0;entryX=0;entryY=0.75;entryDx=0;entryDy=0;" edge="1" parent="WIyWlLk6GJQsqaUBKTNV-1" source="6UodDukY4bxk-1EVCBgu-45" target="6UodDukY4bxk-1EVCBgu-32">
          <mxGeometry width="50" height="50" relative="1" as="geometry">
            <mxPoint x="915" y="-2180" as="sourcePoint" />
            <mxPoint x="905" y="-2130" as="targetPoint" />
          </mxGeometry>
        </mxCell>
        <mxCell id="6UodDukY4bxk-1EVCBgu-56" value="&lt;span style=&quot;font-size: 15px;&quot;&gt;回馈信息&lt;/span&gt;" style="text;html=1;strokeColor=none;fillColor=none;align=center;verticalAlign=middle;whiteSpace=wrap;rounded=0;" vertex="1" parent="WIyWlLk6GJQsqaUBKTNV-1">
          <mxGeometry x="810" y="-2145" width="80" height="40" as="geometry" />
        </mxCell>
        <mxCell id="6UodDukY4bxk-1EVCBgu-62" style="edgeStyle=orthogonalEdgeStyle;rounded=0;orthogonalLoop=1;jettySize=auto;html=1;exitX=0.5;exitY=1;exitDx=0;exitDy=0;entryX=0.5;entryY=0;entryDx=0;entryDy=0;" edge="1" parent="WIyWlLk6GJQsqaUBKTNV-1" source="6UodDukY4bxk-1EVCBgu-57" target="6UodDukY4bxk-1EVCBgu-45">
          <mxGeometry relative="1" as="geometry" />
        </mxCell>
        <mxCell id="6UodDukY4bxk-1EVCBgu-57" value="PID算法处理" style="rounded=0;whiteSpace=wrap;html=1;" vertex="1" parent="WIyWlLk6GJQsqaUBKTNV-1">
          <mxGeometry x="870" y="-2270" width="170" height="30" as="geometry" />
        </mxCell>
        <mxCell id="6UodDukY4bxk-1EVCBgu-61" style="edgeStyle=orthogonalEdgeStyle;rounded=0;orthogonalLoop=1;jettySize=auto;html=1;exitX=0.5;exitY=1;exitDx=0;exitDy=0;entryX=0.5;entryY=0;entryDx=0;entryDy=0;" edge="1" parent="WIyWlLk6GJQsqaUBKTNV-1" source="6UodDukY4bxk-1EVCBgu-58" target="6UodDukY4bxk-1EVCBgu-57">
          <mxGeometry relative="1" as="geometry" />
        </mxCell>
        <mxCell id="6UodDukY4bxk-1EVCBgu-58" value="视觉识别处理" style="rounded=0;whiteSpace=wrap;html=1;" vertex="1" parent="WIyWlLk6GJQsqaUBKTNV-1">
          <mxGeometry x="870" y="-2310" width="170" height="30" as="geometry" />
        </mxCell>
        <mxCell id="6UodDukY4bxk-1EVCBgu-63" value="机械手模块" style="strokeWidth=2;html=1;shape=mxgraph.flowchart.loop_limit;whiteSpace=wrap;" vertex="1" parent="WIyWlLk6GJQsqaUBKTNV-1">
          <mxGeometry x="905" y="-2100" width="100" height="40" as="geometry" />
        </mxCell>
        <mxCell id="6UodDukY4bxk-1EVCBgu-64" style="edgeStyle=orthogonalEdgeStyle;rounded=0;orthogonalLoop=1;jettySize=auto;html=1;exitX=0.5;exitY=1;exitDx=0;exitDy=0;entryX=0.5;entryY=0;entryDx=0;entryDy=0;" edge="1" parent="WIyWlLk6GJQsqaUBKTNV-1" source="6UodDukY4bxk-1EVCBgu-65" target="6UodDukY4bxk-1EVCBgu-73">
          <mxGeometry relative="1" as="geometry" />
        </mxCell>
        <mxCell id="6UodDukY4bxk-1EVCBgu-65" value="读取机械手状态" style="rounded=0;whiteSpace=wrap;html=1;" vertex="1" parent="WIyWlLk6GJQsqaUBKTNV-1">
          <mxGeometry x="870" y="-2030" width="170" height="30" as="geometry" />
        </mxCell>
        <mxCell id="6UodDukY4bxk-1EVCBgu-66" value="进行抬升和夹取回馈" style="rounded=0;whiteSpace=wrap;html=1;" vertex="1" parent="WIyWlLk6GJQsqaUBKTNV-1">
          <mxGeometry x="870" y="-1930" width="170" height="30" as="geometry" />
        </mxCell>
        <mxCell id="6UodDukY4bxk-1EVCBgu-67" value="" style="endArrow=classic;html=1;rounded=0;exitX=0.5;exitY=1;exitDx=0;exitDy=0;exitPerimeter=0;entryX=0.5;entryY=0;entryDx=0;entryDy=0;" edge="1" parent="WIyWlLk6GJQsqaUBKTNV-1" source="6UodDukY4bxk-1EVCBgu-63" target="6UodDukY4bxk-1EVCBgu-65">
          <mxGeometry width="50" height="50" relative="1" as="geometry">
            <mxPoint x="835" y="-2040" as="sourcePoint" />
            <mxPoint x="885" y="-2090" as="targetPoint" />
          </mxGeometry>
        </mxCell>
        <mxCell id="6UodDukY4bxk-1EVCBgu-68" value="" style="endArrow=classic;html=1;rounded=0;exitX=0.5;exitY=1;exitDx=0;exitDy=0;entryX=1;entryY=0.5;entryDx=0;entryDy=0;entryPerimeter=0;" edge="1" parent="WIyWlLk6GJQsqaUBKTNV-1" source="6UodDukY4bxk-1EVCBgu-66" target="6UodDukY4bxk-1EVCBgu-63">
          <mxGeometry width="50" height="50" relative="1" as="geometry">
            <mxPoint x="1005" y="-1850" as="sourcePoint" />
            <mxPoint x="1160" y="-2070" as="targetPoint" />
            <Array as="points">
              <mxPoint x="955" y="-1860" />
              <mxPoint x="1160" y="-1860" />
              <mxPoint x="1160" y="-2080" />
            </Array>
          </mxGeometry>
        </mxCell>
        <mxCell id="6UodDukY4bxk-1EVCBgu-69" value="&lt;font color=&quot;#3333ff&quot; size=&quot;1&quot;&gt;&lt;b style=&quot;font-size: 20px;&quot;&gt;25次/秒&lt;/b&gt;&lt;/font&gt;" style="text;html=1;strokeColor=none;fillColor=none;align=center;verticalAlign=middle;whiteSpace=wrap;rounded=0;" vertex="1" parent="WIyWlLk6GJQsqaUBKTNV-1">
          <mxGeometry x="1040" y="-2000" width="110" height="70" as="geometry" />
        </mxCell>
        <mxCell id="6UodDukY4bxk-1EVCBgu-72" style="edgeStyle=orthogonalEdgeStyle;rounded=0;orthogonalLoop=1;jettySize=auto;html=1;exitX=0.5;exitY=1;exitDx=0;exitDy=0;entryX=0.5;entryY=0;entryDx=0;entryDy=0;" edge="1" parent="WIyWlLk6GJQsqaUBKTNV-1" source="6UodDukY4bxk-1EVCBgu-73">
          <mxGeometry relative="1" as="geometry">
            <mxPoint x="954.9999999999998" y="-1950" as="targetPoint" />
          </mxGeometry>
        </mxCell>
        <mxCell id="6UodDukY4bxk-1EVCBgu-75" style="edgeStyle=orthogonalEdgeStyle;rounded=0;orthogonalLoop=1;jettySize=auto;html=1;exitX=0.5;exitY=1;exitDx=0;exitDy=0;" edge="1" parent="WIyWlLk6GJQsqaUBKTNV-1" source="6UodDukY4bxk-1EVCBgu-73">
          <mxGeometry relative="1" as="geometry">
            <mxPoint x="954.6521739130437" y="-1932" as="targetPoint" />
          </mxGeometry>
        </mxCell>
        <mxCell id="6UodDukY4bxk-1EVCBgu-73" value="处理驾驶员指令" style="rounded=0;whiteSpace=wrap;html=1;" vertex="1" parent="WIyWlLk6GJQsqaUBKTNV-1">
          <mxGeometry x="870" y="-1980" width="170" height="30" as="geometry" />
        </mxCell>
        <mxCell id="6UodDukY4bxk-1EVCBgu-74" value="" style="endArrow=classic;html=1;rounded=0;exitX=0;exitY=0;exitDx=0;exitDy=0;entryX=0;entryY=0.5;entryDx=0;entryDy=0;" edge="1" parent="WIyWlLk6GJQsqaUBKTNV-1" source="6UodDukY4bxk-1EVCBgu-32" target="6UodDukY4bxk-1EVCBgu-73">
          <mxGeometry width="50" height="50" relative="1" as="geometry">
            <mxPoint x="710" y="-1685" as="sourcePoint" />
            <mxPoint x="860" y="-2010" as="targetPoint" />
          </mxGeometry>
        </mxCell>
        <mxCell id="6UodDukY4bxk-1EVCBgu-76" value="" style="strokeWidth=2;html=1;shape=mxgraph.flowchart.loop_limit;whiteSpace=wrap;" vertex="1" parent="WIyWlLk6GJQsqaUBKTNV-1">
          <mxGeometry x="550" y="-1835" width="70" height="30" as="geometry" />
        </mxCell>
        <mxCell id="6UodDukY4bxk-1EVCBgu-77" value="" style="endArrow=classic;html=1;rounded=0;exitX=0.5;exitY=1;exitDx=0;exitDy=0;exitPerimeter=0;entryX=1;entryY=0.5;entryDx=0;entryDy=0;entryPerimeter=0;" edge="1" parent="WIyWlLk6GJQsqaUBKTNV-1" source="6UodDukY4bxk-1EVCBgu-76" target="6UodDukY4bxk-1EVCBgu-76">
          <mxGeometry width="50" height="50" relative="1" as="geometry">
            <mxPoint x="640" y="-1785" as="sourcePoint" />
            <mxPoint x="690" y="-1820" as="targetPoint" />
            <Array as="points">
              <mxPoint x="585" y="-1755" />
              <mxPoint x="690" y="-1755" />
              <mxPoint x="690" y="-1820" />
            </Array>
          </mxGeometry>
        </mxCell>
        <mxCell id="6UodDukY4bxk-1EVCBgu-78" value="" style="endArrow=none;dashed=1;html=1;dashPattern=1 3;strokeWidth=2;rounded=0;" edge="1" parent="WIyWlLk6GJQsqaUBKTNV-1">
          <mxGeometry width="50" height="50" relative="1" as="geometry">
            <mxPoint x="600" y="-1785" as="sourcePoint" />
            <mxPoint x="670" y="-1785" as="targetPoint" />
          </mxGeometry>
        </mxCell>
        <mxCell id="6UodDukY4bxk-1EVCBgu-79" value="" style="strokeWidth=2;html=1;shape=mxgraph.flowchart.loop_limit;whiteSpace=wrap;" vertex="1" parent="WIyWlLk6GJQsqaUBKTNV-1">
          <mxGeometry x="735" y="-1825" width="70" height="30" as="geometry" />
        </mxCell>
        <mxCell id="6UodDukY4bxk-1EVCBgu-80" value="" style="endArrow=classic;html=1;rounded=0;exitX=0.5;exitY=1;exitDx=0;exitDy=0;exitPerimeter=0;entryX=1;entryY=0.5;entryDx=0;entryDy=0;entryPerimeter=0;" edge="1" parent="WIyWlLk6GJQsqaUBKTNV-1" source="6UodDukY4bxk-1EVCBgu-79" target="6UodDukY4bxk-1EVCBgu-79">
          <mxGeometry width="50" height="50" relative="1" as="geometry">
            <mxPoint x="825" y="-1775" as="sourcePoint" />
            <mxPoint x="875" y="-1810" as="targetPoint" />
            <Array as="points">
              <mxPoint x="770" y="-1745" />
              <mxPoint x="875" y="-1745" />
              <mxPoint x="875" y="-1810" />
            </Array>
          </mxGeometry>
        </mxCell>
        <mxCell id="6UodDukY4bxk-1EVCBgu-81" value="" style="endArrow=none;dashed=1;html=1;dashPattern=1 3;strokeWidth=2;rounded=0;" edge="1" parent="WIyWlLk6GJQsqaUBKTNV-1">
          <mxGeometry width="50" height="50" relative="1" as="geometry">
            <mxPoint x="785" y="-1775" as="sourcePoint" />
            <mxPoint x="855" y="-1775" as="targetPoint" />
          </mxGeometry>
        </mxCell>
        <mxCell id="6UodDukY4bxk-1EVCBgu-82" value="" style="strokeWidth=2;html=1;shape=mxgraph.flowchart.loop_limit;whiteSpace=wrap;" vertex="1" parent="WIyWlLk6GJQsqaUBKTNV-1">
          <mxGeometry x="900" y="-1820" width="70" height="30" as="geometry" />
        </mxCell>
        <mxCell id="6UodDukY4bxk-1EVCBgu-83" value="" style="endArrow=classic;html=1;rounded=0;exitX=0.5;exitY=1;exitDx=0;exitDy=0;exitPerimeter=0;entryX=1;entryY=0.5;entryDx=0;entryDy=0;entryPerimeter=0;" edge="1" parent="WIyWlLk6GJQsqaUBKTNV-1" source="6UodDukY4bxk-1EVCBgu-82" target="6UodDukY4bxk-1EVCBgu-82">
          <mxGeometry width="50" height="50" relative="1" as="geometry">
            <mxPoint x="990" y="-1770" as="sourcePoint" />
            <mxPoint x="1040" y="-1805" as="targetPoint" />
            <Array as="points">
              <mxPoint x="935" y="-1740" />
              <mxPoint x="1040" y="-1740" />
              <mxPoint x="1040" y="-1805" />
            </Array>
          </mxGeometry>
        </mxCell>
        <mxCell id="6UodDukY4bxk-1EVCBgu-84" value="" style="endArrow=none;dashed=1;html=1;dashPattern=1 3;strokeWidth=2;rounded=0;" edge="1" parent="WIyWlLk6GJQsqaUBKTNV-1">
          <mxGeometry width="50" height="50" relative="1" as="geometry">
            <mxPoint x="950" y="-1770" as="sourcePoint" />
            <mxPoint x="1020" y="-1770" as="targetPoint" />
          </mxGeometry>
        </mxCell>
        <mxCell id="6UodDukY4bxk-1EVCBgu-85" value="其他模块" style="text;html=1;strokeColor=none;fillColor=none;align=center;verticalAlign=middle;whiteSpace=wrap;rounded=0;" vertex="1" parent="WIyWlLk6GJQsqaUBKTNV-1">
          <mxGeometry x="535" y="-1830" width="100" height="20" as="geometry" />
        </mxCell>
        <mxCell id="6UodDukY4bxk-1EVCBgu-86" value="其他模块" style="text;html=1;strokeColor=none;fillColor=none;align=center;verticalAlign=middle;whiteSpace=wrap;rounded=0;" vertex="1" parent="WIyWlLk6GJQsqaUBKTNV-1">
          <mxGeometry x="720" y="-1820" width="100" height="20" as="geometry" />
        </mxCell>
        <mxCell id="6UodDukY4bxk-1EVCBgu-87" value="其他模块" style="text;html=1;strokeColor=none;fillColor=none;align=center;verticalAlign=middle;whiteSpace=wrap;rounded=0;" vertex="1" parent="WIyWlLk6GJQsqaUBKTNV-1">
          <mxGeometry x="885" y="-1815" width="100" height="20" as="geometry" />
        </mxCell>
        <mxCell id="6UodDukY4bxk-1EVCBgu-88" value="" style="endArrow=classic;startArrow=classic;html=1;rounded=0;exitX=0.9;exitY=0.15;exitDx=0;exitDy=0;exitPerimeter=0;" edge="1" parent="WIyWlLk6GJQsqaUBKTNV-1" source="6UodDukY4bxk-1EVCBgu-76">
          <mxGeometry width="50" height="50" relative="1" as="geometry">
            <mxPoint x="580" y="-1840" as="sourcePoint" />
            <mxPoint x="650" y="-1870" as="targetPoint" />
          </mxGeometry>
        </mxCell>
        <mxCell id="6UodDukY4bxk-1EVCBgu-89" value="" style="endArrow=classic;startArrow=classic;html=1;rounded=0;exitX=0.1;exitY=0.15;exitDx=0;exitDy=0;exitPerimeter=0;" edge="1" parent="WIyWlLk6GJQsqaUBKTNV-1" source="6UodDukY4bxk-1EVCBgu-79">
          <mxGeometry width="50" height="50" relative="1" as="geometry">
            <mxPoint x="740" y="-1810" as="sourcePoint" />
            <mxPoint x="740" y="-1870" as="targetPoint" />
          </mxGeometry>
        </mxCell>
        <mxCell id="6UodDukY4bxk-1EVCBgu-90" value="" style="endArrow=classic;startArrow=classic;html=1;rounded=0;exitX=0.1;exitY=0.15;exitDx=0;exitDy=0;exitPerimeter=0;" edge="1" parent="WIyWlLk6GJQsqaUBKTNV-1" source="6UodDukY4bxk-1EVCBgu-82">
          <mxGeometry width="50" height="50" relative="1" as="geometry">
            <mxPoint x="905" y="-1810" as="sourcePoint" />
            <mxPoint x="810" y="-1870" as="targetPoint" />
          </mxGeometry>
        </mxCell>
      </root>
    </mxGraphModel>
  </diagram>
</mxfile>
